<svg width="115" height="27" viewBox="0 0 115 27" fill="none" xmlns="http://www.w3.org/2000/svg">
<path d="M7.86133 9.03711C7.2819 9.03711 6.76758 9.15104 6.31836 9.37891C5.87565 9.60026 5.5013 9.92253 5.19531 10.3457C4.89583 10.7689 4.66797 11.2799 4.51172 11.8789C4.35547 12.4779 4.27734 13.1517 4.27734 13.9004C4.27734 14.9095 4.40104 15.7721 4.64844 16.4883C4.90234 17.1979 5.29297 17.7415 5.82031 18.1191C6.34766 18.4902 7.02799 18.6758 7.86133 18.6758C8.44076 18.6758 9.02018 18.6107 9.59961 18.4805C10.1855 18.3503 10.8203 18.1647 11.5039 17.9238V20.4629C10.8724 20.7233 10.2507 20.9089 9.63867 21.0195C9.02669 21.1367 8.33984 21.1953 7.57812 21.1953C6.10677 21.1953 4.89583 20.8926 3.94531 20.2871C3.0013 19.6751 2.30143 18.8223 1.8457 17.7285C1.38997 16.6283 1.16211 15.3457 1.16211 13.8809C1.16211 12.8001 1.30859 11.8105 1.60156 10.9121C1.89453 10.0137 2.32422 9.23568 2.89062 8.57812C3.45703 7.92057 4.1569 7.41276 4.99023 7.05469C5.82357 6.69661 6.7806 6.51758 7.86133 6.51758C8.57096 6.51758 9.2806 6.60872 9.99023 6.79102C10.7064 6.9668 11.39 7.21094 12.041 7.52344L11.0645 9.98438C10.5306 9.73047 9.99349 9.50911 9.45312 9.32031C8.91276 9.13151 8.38216 9.03711 7.86133 9.03711ZM17.2949 21H14.3164V5.80469H17.2949V21ZM23.4082 10.082V21H20.4297V10.082H23.4082ZM21.9238 5.80469C22.3665 5.80469 22.7474 5.90885 23.0664 6.11719C23.3854 6.31901 23.5449 6.69987 23.5449 7.25977C23.5449 7.81315 23.3854 8.19727 23.0664 8.41211C22.7474 8.62044 22.3665 8.72461 21.9238 8.72461C21.4746 8.72461 21.0905 8.62044 20.7715 8.41211C20.459 8.19727 20.3027 7.81315 20.3027 7.25977C20.3027 6.69987 20.459 6.31901 20.7715 6.11719C21.0905 5.90885 21.4746 5.80469 21.9238 5.80469ZM32.7441 9.87695C33.9095 9.87695 34.847 10.196 35.5566 10.834C36.2663 11.4655 36.6211 12.4811 36.6211 13.8809V21H33.6426V14.623C33.6426 13.8418 33.4993 13.2526 33.2129 12.8555C32.9329 12.4583 32.4902 12.2598 31.8848 12.2598C30.9733 12.2598 30.3516 12.569 30.0195 13.1875C29.6875 13.806 29.5215 14.6979 29.5215 15.8633V21H26.543V10.082H28.8184L29.2188 11.4785H29.3848C29.6191 11.1009 29.9089 10.7949 30.2539 10.5605C30.6055 10.3262 30.9928 10.1536 31.416 10.043C31.8457 9.93229 32.2884 9.87695 32.7441 9.87695ZM42.666 10.082V21H39.6875V10.082H42.666ZM41.1816 5.80469C41.6243 5.80469 42.0052 5.90885 42.3242 6.11719C42.6432 6.31901 42.8027 6.69987 42.8027 7.25977C42.8027 7.81315 42.6432 8.19727 42.3242 8.41211C42.0052 8.62044 41.6243 8.72461 41.1816 8.72461C40.7324 8.72461 40.3483 8.62044 40.0293 8.41211C39.7168 8.19727 39.5605 7.81315 39.5605 7.25977C39.5605 6.69987 39.7168 6.31901 40.0293 6.11719C40.3483 5.90885 40.7324 5.80469 41.1816 5.80469ZM50.2344 21.1953C49.1536 21.1953 48.2324 21 47.4707 20.6094C46.709 20.2122 46.1296 19.6003 45.7324 18.7734C45.3353 17.9466 45.1367 16.8887 45.1367 15.5996C45.1367 14.265 45.3613 13.1777 45.8105 12.3379C46.2663 11.4915 46.8945 10.8698 47.6953 10.4727C48.5026 10.0755 49.4368 9.87695 50.498 9.87695C51.2533 9.87695 51.9043 9.95182 52.4512 10.1016C53.0046 10.2448 53.4863 10.4173 53.8965 10.6191L53.0176 12.9238C52.5488 12.735 52.1126 12.582 51.709 12.4648C51.3053 12.3411 50.9017 12.2793 50.498 12.2793C49.9772 12.2793 49.5443 12.403 49.1992 12.6504C48.8542 12.8913 48.597 13.2559 48.4277 13.7441C48.2585 14.2324 48.1738 14.8444 48.1738 15.5801C48.1738 16.3027 48.265 16.9017 48.4473 17.377C48.6296 17.8522 48.8932 18.207 49.2383 18.4414C49.5833 18.6693 50.0033 18.7832 50.498 18.7832C51.1165 18.7832 51.6667 18.7018 52.1484 18.5391C52.6302 18.3698 53.099 18.1354 53.5547 17.8359V20.3848C53.099 20.6712 52.6204 20.8763 52.1191 21C51.6243 21.1302 50.9961 21.1953 50.2344 21.1953Z" fill="black"/>
<path d="M56.7969 6.72266H61.2402C63.1413 6.72266 64.5801 6.98958 65.5566 7.52344C66.5332 8.05729 67.0215 8.99479 67.0215 10.3359C67.0215 10.8763 66.9336 11.3646 66.7578 11.8008C66.5885 12.237 66.3411 12.5951 66.0156 12.875C65.6901 13.1549 65.293 13.3372 64.8242 13.4219V13.5195C65.2995 13.6172 65.7292 13.7865 66.1133 14.0273C66.4974 14.2617 66.8034 14.6068 67.0312 15.0625C67.2656 15.5117 67.3828 16.1107 67.3828 16.8594C67.3828 17.7253 67.1712 18.4674 66.748 19.0859C66.3249 19.7044 65.7194 20.1797 64.9316 20.5117C64.1504 20.8372 63.2194 21 62.1387 21H56.7969V6.72266ZM59.8242 12.377H61.582C62.4609 12.377 63.0697 12.2402 63.4082 11.9668C63.7467 11.6868 63.916 11.2767 63.916 10.7363C63.916 10.1895 63.7142 9.79883 63.3105 9.56445C62.9134 9.32357 62.2819 9.20312 61.416 9.20312H59.8242V12.377ZM59.8242 14.7793V18.5H61.7969C62.7083 18.5 63.3431 18.3242 63.7012 17.9727C64.0592 17.6211 64.2383 17.1491 64.2383 16.5566C64.2383 16.2051 64.1602 15.8958 64.0039 15.6289C63.8477 15.362 63.584 15.1536 63.2129 15.0039C62.8483 14.8542 62.3438 14.7793 61.6992 14.7793H59.8242ZM79.9219 15.5215C79.9219 16.4329 79.7982 17.2402 79.5508 17.9434C79.3099 18.6465 78.9551 19.2422 78.4863 19.7305C78.0241 20.2122 77.4642 20.5768 76.8066 20.8242C76.1556 21.0716 75.4199 21.1953 74.5996 21.1953C73.8314 21.1953 73.125 21.0716 72.4805 20.8242C71.8424 20.5768 71.2858 20.2122 70.8105 19.7305C70.3418 19.2422 69.9772 18.6465 69.7168 17.9434C69.4629 17.2402 69.3359 16.4329 69.3359 15.5215C69.3359 14.3105 69.5508 13.2852 69.9805 12.4453C70.4102 11.6055 71.0221 10.9674 71.8164 10.5312C72.6107 10.0951 73.5579 9.87695 74.6582 9.87695C75.6803 9.87695 76.5853 10.0951 77.373 10.5312C78.1673 10.9674 78.7891 11.6055 79.2383 12.4453C79.694 13.2852 79.9219 14.3105 79.9219 15.5215ZM72.373 15.5215C72.373 16.2376 72.4512 16.8398 72.6074 17.3281C72.7637 17.8164 73.0078 18.1842 73.3398 18.4316C73.6719 18.679 74.1048 18.8027 74.6387 18.8027C75.166 18.8027 75.5924 18.679 75.918 18.4316C76.25 18.1842 76.4909 17.8164 76.6406 17.3281C76.7969 16.8398 76.875 16.2376 76.875 15.5215C76.875 14.7988 76.7969 14.1999 76.6406 13.7246C76.4909 13.2428 76.25 12.8815 75.918 12.6406C75.5859 12.3997 75.153 12.2793 74.6191 12.2793C73.8314 12.2793 73.2585 12.5495 72.9004 13.0898C72.5488 13.6302 72.373 14.4408 72.373 15.5215ZM86.8555 9.85742C88.3203 9.85742 89.4434 10.1764 90.2246 10.8145C91.0059 11.4525 91.3965 12.4225 91.3965 13.7246V21H89.3164L88.7402 19.5156H88.6621C88.3496 19.9062 88.0306 20.2253 87.7051 20.4727C87.3796 20.7201 87.0052 20.9023 86.582 21.0195C86.1589 21.1367 85.6445 21.1953 85.0391 21.1953C84.3945 21.1953 83.8151 21.0716 83.3008 20.8242C82.793 20.5768 82.3926 20.1992 82.0996 19.6914C81.8066 19.1771 81.6602 18.526 81.6602 17.7383C81.6602 16.5794 82.0671 15.7266 82.8809 15.1797C83.6947 14.6263 84.9154 14.3203 86.543 14.2617L88.4375 14.2031V13.7246C88.4375 13.1517 88.2878 12.7318 87.9883 12.4648C87.6888 12.1979 87.2721 12.0645 86.7383 12.0645C86.2109 12.0645 85.6934 12.1393 85.1855 12.2891C84.6777 12.4388 84.1699 12.6276 83.6621 12.8555L82.6758 10.8438C83.2552 10.5378 83.903 10.2969 84.6191 10.1211C85.3418 9.94531 86.0872 9.85742 86.8555 9.85742ZM88.4375 15.9414L87.2852 15.9805C86.3216 16.0065 85.651 16.179 85.2734 16.498C84.9023 16.8171 84.7168 17.237 84.7168 17.7578C84.7168 18.2135 84.8503 18.5391 85.1172 18.7344C85.3841 18.9232 85.7324 19.0176 86.1621 19.0176C86.8001 19.0176 87.3372 18.8288 87.7734 18.4512C88.2161 18.0736 88.4375 17.5365 88.4375 16.8398V15.9414ZM100.566 9.87695C100.716 9.87695 100.889 9.88672 101.084 9.90625C101.286 9.91927 101.449 9.9388 101.572 9.96484L101.348 12.7578C101.25 12.7253 101.11 12.7025 100.928 12.6895C100.752 12.6699 100.599 12.6602 100.469 12.6602C100.085 12.6602 99.7103 12.709 99.3457 12.8066C98.9876 12.9043 98.6654 13.0638 98.3789 13.2852C98.0924 13.5 97.8646 13.7865 97.6953 14.1445C97.5326 14.4961 97.4512 14.929 97.4512 15.4434V21H94.4727V10.082H96.7285L97.168 11.918H97.3145C97.5293 11.5469 97.7962 11.2083 98.1152 10.9023C98.4408 10.5898 98.8086 10.3424 99.2188 10.1602C99.6354 9.97135 100.085 9.87695 100.566 9.87695ZM107.012 21.1953C105.794 21.1953 104.801 20.7201 104.033 19.7695C103.271 18.8125 102.891 17.4095 102.891 15.5605C102.891 13.6921 103.278 12.2793 104.053 11.3223C104.827 10.3587 105.84 9.87695 107.09 9.87695C107.611 9.87695 108.07 9.94857 108.467 10.0918C108.864 10.235 109.206 10.4271 109.492 10.668C109.785 10.9089 110.033 11.179 110.234 11.4785H110.332C110.293 11.2702 110.244 10.9642 110.186 10.5605C110.133 10.1504 110.107 9.73047 110.107 9.30078V5.80469H113.096V21H110.811L110.234 19.584H110.107C109.919 19.8835 109.681 20.1569 109.395 20.4043C109.115 20.6452 108.779 20.8372 108.389 20.9805C107.998 21.1237 107.539 21.1953 107.012 21.1953ZM108.057 18.8223C108.87 18.8223 109.443 18.5814 109.775 18.0996C110.114 17.6113 110.293 16.8789 110.312 15.9023V15.5801C110.312 14.5189 110.15 13.7083 109.824 13.1484C109.499 12.582 108.893 12.2988 108.008 12.2988C107.35 12.2988 106.836 12.582 106.465 13.1484C106.094 13.7148 105.908 14.5319 105.908 15.5996C105.908 16.6673 106.094 17.4714 106.465 18.0117C106.842 18.5521 107.373 18.8223 108.057 18.8223Z" fill="#00DF4A"/>
</svg>
